# xmcd CD database file
#
# Track frame offsets:
#	150
#	18530
#	36867
#	55215
#	72240
#	86522
#	104177
#	133727
#	157487
#	176942
#	193490
#	213900
#	233877
#	268497
#	285862
#	304122
#	314975
#	331112
#
# Disc length: 4628 seconds
#
# Revision: 7
# Processed by: cddbd v1.5.1PL0 Copyright (c) Steve Scherf et al.
# Submitted via: CDex 1.51
#
DISCID=24121212
DTITLE=　 - 仮面ライダー主題歌・挿入歌全集? Disc.1
DYEAR=2004
DGENRE=サウンドトラック (テレビ)
TTITLE0=田中昌之/仮面ライダークウガ!
TTITLE1=田中昌之/仮面ライダークウガ!(イントロ TV Version)
TTITLE2=田中昌之/THE MASKED RIDER KUUGA!(仮面ライダークウガ!英語Version)
TTITLE3=橋本仁/power of soul
TTITLE4=田中昌之/Red Desire
TTITLE5=橋本仁/Blue Higher
TTITLE6=橋本仁/Edge of Green
TTITLE7=坂井紀雄/PURPLE PRIDE
TTITLE8=坂井紀雄/Rising your power to Gold
TTITLE9=田中昌之/TRY and CHASE
TTITLE10=MICKEY-T./装甲機GOURAM
TTITLE11=橋本仁/BEATCHASER 2000
TTITLE12=坂井紀雄/究極の闇
TTITLE13=橋本仁/Say Alright!
TTITLE14=村田和美/Believe in Miracle
TTITLE15=葵若菜/たんぽぽのおはな
TTITLE16=橋本仁/Into the blue sky(青空になる 英語Version)
TTITLE17=橋本仁/青空になる
EXTD=YEAR: 2004
EXTT0=
EXTT1=
EXTT2=
EXTT3=
EXTT4=
EXTT5=
EXTT6=
EXTT7=
EXTT8=
EXTT9=
EXTT10=
EXTT11=
EXTT12=
EXTT13=
EXTT14=
EXTT15=
EXTT16=
EXTT17=
PLAYORDER=
